<svg width="56" height="56" viewBox="0 0 56 56" fill="none" xmlns="http://www.w3.org/2000/svg">
<path d="M8.5 11L8 16.5L12 13.5L8.5 11Z" fill="black" stroke="black"/>
<path d="M24.5 11L24 16.5L28 13.5L24.5 11Z" fill="black" stroke="black"/>
<path d="M40.5 11L40 16.5L44 13.5L40.5 11Z" fill="black" stroke="black"/>
<path d="M12 49.5L10 44V39L12 34.5L15.5 29.5V24L14 20.5L12 17.5L10 15" stroke="black" stroke-width="6"/>
<path d="M28 49.5L26 44V39L28 34.5L31.5 29.5V24L30 20.5L28 17.5L26 15" stroke="black" stroke-width="6"/>
<path d="M44 49.5L42 44V39L44 34.5L47.5 29.5V24L46 20.5L44 17.5L42 15" stroke="black" stroke-width="6"/>
</svg>
